<svg xmlns="http://www.w3.org/2000/svg" width="1700" height="1200" viewBox="0 0 1700 1200">
  <defs>
    <style>
      .box { fill: #fff; stroke: #111; stroke-width: 3; }
      .line { fill: none; stroke: #111; stroke-width: 3; }
      .title { font: 700 30px Arial, sans-serif; fill: #111; }
      .label { font: 23px Arial, sans-serif; fill: #111; }
      .small { font: 19px Arial, sans-serif; fill: #111; }
    </style>
    <marker id="arrow" markerWidth="10" markerHeight="10" refX="9" refY="5" orient="auto" markerUnits="strokeWidth">
      <path d="M 0 0 L 10 5 L 0 10 z" fill="#111" />
    </marker>
  </defs>

  <rect x="0" y="0" width="1700" height="1200" fill="#fff" />
  <text x="850" y="55" text-anchor="middle" class="title">DFD Level 1 - Proposed System for Property Accountability Records and Disposal System</text>

  <rect x="70" y="170" width="190" height="82" class="box" />
  <text x="165" y="218" text-anchor="middle" class="label">Teacher</text>

  <rect x="250" y="470" width="190" height="82" class="box" />
  <text x="345" y="518" text-anchor="middle" class="label">Staff</text>

  <rect x="1450" y="520" width="190" height="82" class="box" />
  <text x="1545" y="568" text-anchor="middle" class="label">Admin</text>

  <rect x="760" y="90" width="210" height="78" class="box" />
  <text x="865" y="122" text-anchor="middle" class="small">1</text>
  <text x="865" y="150" text-anchor="middle" class="label">Manage User Accounts</text>

  <rect x="760" y="315" width="210" height="78" class="box" />
  <text x="865" y="347" text-anchor="middle" class="small">2</text>
  <text x="865" y="375" text-anchor="middle" class="label">Manage Property Records</text>

  <rect x="760" y="535" width="210" height="78" class="box" />
  <text x="865" y="567" text-anchor="middle" class="small">3</text>
  <text x="865" y="595" text-anchor="middle" class="label">Process Property Assignments</text>

  <rect x="760" y="765" width="210" height="78" class="box" />
  <text x="865" y="797" text-anchor="middle" class="small">4</text>
  <text x="865" y="825" text-anchor="middle" class="label">Process Property Disposals</text>

  <rect x="760" y="1000" width="210" height="78" class="box" />
  <text x="865" y="1032" text-anchor="middle" class="small">5</text>
  <text x="865" y="1060" text-anchor="middle" class="label">Generate Reports and QR Information</text>

  <rect x="390" y="85" width="215" height="78" class="box" />
  <text x="435" y="118" text-anchor="middle" class="small">D1</text>
  <text x="510" y="148" text-anchor="middle" class="label">User Records</text>

  <rect x="60" y="350" width="230" height="78" class="box" />
  <text x="105" y="383" text-anchor="middle" class="small">D2</text>
  <text x="185" y="413" text-anchor="middle" class="label">Property Records</text>

  <rect x="1120" y="600" width="240" height="78" class="box" />
  <text x="1165" y="633" text-anchor="middle" class="small">D3</text>
  <text x="1245" y="663" text-anchor="middle" class="label">Assignment Records</text>

  <rect x="1120" y="860" width="230" height="78" class="box" />
  <text x="1165" y="893" text-anchor="middle" class="small">D4</text>
  <text x="1240" y="923" text-anchor="middle" class="label">Disposal Records</text>

  <rect x="1120" y="1035" width="260" height="78" class="box" />
  <text x="1165" y="1068" text-anchor="middle" class="small">D5</text>
  <text x="1250" y="1098" text-anchor="middle" class="label">Report and QR Files</text>

  <line x1="605" y1="110" x2="760" y2="110" class="line" marker-end="url(#arrow)" />
  <text x="682" y="100" text-anchor="middle" class="small">User Record Data</text>

  <line x1="760" y1="145" x2="605" y2="145" class="line" marker-end="url(#arrow)" />
  <text x="682" y="170" text-anchor="middle" class="small">User Information Data</text>

  <line x1="970" y1="130" x2="1450" y2="130" class="line" />
  <line x1="1450" y1="130" x2="1450" y2="545" class="line" marker-end="url(#arrow)" />
  <text x="1210" y="120" text-anchor="middle" class="small">User Account Information</text>

  <line x1="1450" y1="520" x2="970" y2="520" class="line" marker-end="url(#arrow)" />
  <text x="1210" y="510" text-anchor="middle" class="small">User Management Data</text>

  <line x1="290" y1="380" x2="760" y2="380" class="line" marker-end="url(#arrow)" />
  <text x="525" y="370" text-anchor="middle" class="small">Property Record Details</text>

  <line x1="760" y1="350" x2="290" y2="350" class="line" marker-end="url(#arrow)" />
  <text x="525" y="340" text-anchor="middle" class="small">Property Information Data</text>

  <line x1="440" y1="500" x2="760" y2="500" class="line" marker-end="url(#arrow)" />
  <text x="600" y="490" text-anchor="middle" class="small">Assignment Verification Data</text>

  <line x1="760" y1="535" x2="440" y2="535" class="line" marker-end="url(#arrow)" />
  <text x="600" y="560" text-anchor="middle" class="small">Assignment Status Information</text>

  <line x1="260" y1="205" x2="760" y2="205" class="line" />
  <line x1="760" y1="205" x2="760" y2="560" class="line" marker-end="url(#arrow)" />
  <text x="510" y="195" text-anchor="middle" class="small">Property Acknowledgment Data</text>

  <line x1="260" y1="230" x2="720" y2="230" class="line" />
  <line x1="720" y1="230" x2="720" y2="585" class="line" marker-end="url(#arrow)" />
  <text x="490" y="220" text-anchor="middle" class="small">Property Inquiry Data</text>

  <line x1="760" y1="610" x2="260" y2="610" class="line" />
  <line x1="260" y1="610" x2="260" y2="245" class="line" marker-end="url(#arrow)" />
  <text x="515" y="630" text-anchor="middle" class="small">Assigned Property Details</text>

  <line x1="440" y1="790" x2="760" y2="790" class="line" marker-end="url(#arrow)" />
  <text x="600" y="780" text-anchor="middle" class="small">Disposal Verification Data</text>

  <line x1="760" y1="825" x2="440" y2="825" class="line" marker-end="url(#arrow)" />
  <text x="600" y="850" text-anchor="middle" class="small">Disposal Record Information</text>

  <line x1="1450" y1="560" x2="970" y2="560" class="line" marker-end="url(#arrow)" />
  <text x="1210" y="550" text-anchor="middle" class="small">Report Request Data</text>

  <line x1="970" y1="1020" x2="1450" y2="1020" class="line" />
  <line x1="1450" y1="1020" x2="1450" y2="595" class="line" marker-end="url(#arrow)" />
  <text x="1210" y="1010" text-anchor="middle" class="small">Generated Reports Data</text>

  <line x1="440" y1="525" x2="680" y2="525" class="line" />
  <line x1="680" y1="525" x2="680" y2="1020" class="line" />
  <line x1="680" y1="1020" x2="760" y2="1020" class="line" marker-end="url(#arrow)" />
  <text x="560" y="1010" text-anchor="middle" class="small">QR Generation Request Data</text>

  <line x1="760" y1="1050" x2="470" y2="1050" class="line" />
  <line x1="470" y1="1050" x2="470" y2="540" class="line" marker-end="url(#arrow)" />
  <text x="560" y="1070" text-anchor="middle" class="small">QR Code Details</text>

  <line x1="260" y1="240" x2="640" y2="240" class="line" />
  <line x1="640" y1="240" x2="640" y2="1045" class="line" />
  <line x1="640" y1="1045" x2="760" y2="1045" class="line" marker-end="url(#arrow)" />
  <text x="450" y="1035" text-anchor="middle" class="small">Query Request Data</text>

  <line x1="760" y1="1070" x2="230" y2="1070" class="line" />
  <line x1="230" y1="1070" x2="230" y2="215" class="line" marker-end="url(#arrow)" />
  <text x="495" y="1090" text-anchor="middle" class="small">Query Response Details</text>

  <line x1="605" y1="125" x2="700" y2="125" class="line" />
  <line x1="700" y1="125" x2="700" y2="570" class="line" marker-end="url(#arrow)" />
  <text x="720" y="340" class="small">User Information Data</text>

  <line x1="290" y1="395" x2="740" y2="395" class="line" />
  <line x1="740" y1="395" x2="740" y2="585" class="line" marker-end="url(#arrow)" />
  <text x="515" y="415" text-anchor="middle" class="small">Property Monitoring Data</text>

  <line x1="970" y1="355" x2="1120" y2="355" class="line" />
  <line x1="1120" y1="355" x2="1120" y2="635" class="line" marker-end="url(#arrow)" />
  <text x="1045" y="345" text-anchor="middle" class="small">Assignment Data</text>

  <line x1="1120" y1="650" x2="970" y2="650" class="line" marker-end="url(#arrow)" />
  <text x="1045" y="675" text-anchor="middle" class="small">Assignment Record Data</text>

  <line x1="970" y1="570" x2="1040" y2="570" class="line" />
  <line x1="1040" y1="570" x2="1040" y2="1025" class="line" marker-end="url(#arrow)" />
  <text x="1060" y="820" class="small">Assignment Information Data</text>

  <line x1="290" y1="365" x2="720" y2="365" class="line" />
  <line x1="720" y1="365" x2="720" y2="800" class="line" marker-end="url(#arrow)" />
  <text x="505" y="355" text-anchor="middle" class="small">Property Status Data</text>

  <line x1="970" y1="800" x2="1120" y2="800" class="line" marker-end="url(#arrow)" />
  <text x="1045" y="790" text-anchor="middle" class="small">Disposal Data</text>

  <line x1="1120" y1="895" x2="970" y2="895" class="line" marker-end="url(#arrow)" />
  <text x="1045" y="920" text-anchor="middle" class="small">Disposal Record Data</text>

  <line x1="970" y1="825" x2="1080" y2="825" class="line" />
  <line x1="1080" y1="825" x2="1080" y2="1040" class="line" marker-end="url(#arrow)" />
  <text x="1100" y="950" class="small">Disposal Information Data</text>

  <line x1="970" y1="365" x2="1000" y2="365" class="line" />
  <line x1="1000" y1="365" x2="1000" y2="1030" class="line" marker-end="url(#arrow)" />
  <text x="1020" y="705" class="small">Property Information Data</text>

  <line x1="970" y1="1025" x2="1120" y2="1025" class="line" marker-end="url(#arrow)" />
  <text x="1045" y="1015" text-anchor="middle" class="small">Generated File Data</text>

  <line x1="1120" y1="1060" x2="970" y2="1060" class="line" marker-end="url(#arrow)" />
  <text x="1045" y="1085" text-anchor="middle" class="small">Stored Report and QR Data</text>
</svg>
