<svg xmlns="http://www.w3.org/2000/svg" width="1800" height="1300" viewBox="0 0 1800 1300">
  <defs>
    <style>
      .box { fill: #fff; stroke: #111; stroke-width: 3; }
      .store { fill: #fff; stroke: #111; stroke-width: 3; }
      .line { fill: none; stroke: #111; stroke-width: 3; }
      .title { font: 700 30px Arial, sans-serif; fill: #111; }
      .label { font: 23px Arial, sans-serif; fill: #111; }
      .small { font: 18px Arial, sans-serif; fill: #111; }
    </style>
    <marker id="arrow" markerWidth="10" markerHeight="10" refX="9" refY="5" orient="auto" markerUnits="strokeWidth">
      <path d="M 0 0 L 10 5 L 0 10 z" fill="#111" />
    </marker>
  </defs>

  <rect x="0" y="0" width="1800" height="1300" fill="#fff" />
  <text x="900" y="55" text-anchor="middle" class="title">DFD Level 1 - Existing Property Accountability and Disposal System</text>

  <rect x="55" y="160" width="250" height="90" class="box" />
  <text x="180" y="197" text-anchor="middle" class="label">Teacher /</text>
  <text x="180" y="226" text-anchor="middle" class="label">End-User</text>

  <rect x="55" y="555" width="250" height="90" class="box" />
  <text x="180" y="592" text-anchor="middle" class="label">Supply Office</text>
  <text x="180" y="621" text-anchor="middle" class="label">Staff</text>

  <rect x="1495" y="520" width="250" height="90" class="box" />
  <text x="1620" y="573" text-anchor="middle" class="label">Administrator</text>

  <rect x="760" y="105" width="280" height="90" class="box" />
  <text x="900" y="137" text-anchor="middle" class="small">1</text>
  <text x="900" y="164" text-anchor="middle" class="label">Receive Property and</text>
  <text x="900" y="190" text-anchor="middle" class="label">Personnel Information</text>

  <rect x="760" y="330" width="280" height="90" class="box" />
  <text x="900" y="362" text-anchor="middle" class="small">2</text>
  <text x="900" y="392" text-anchor="middle" class="label">Record Property</text>
  <text x="900" y="418" text-anchor="middle" class="label">Inventory</text>

  <rect x="760" y="555" width="280" height="90" class="box" />
  <text x="900" y="587" text-anchor="middle" class="small">3</text>
  <text x="900" y="617" text-anchor="middle" class="label">Prepare Property</text>
  <text x="900" y="643" text-anchor="middle" class="label">Accountability</text>

  <rect x="760" y="790" width="280" height="90" class="box" />
  <text x="900" y="822" text-anchor="middle" class="small">4</text>
  <text x="900" y="850" text-anchor="middle" class="label">Process Property</text>
  <text x="900" y="876" text-anchor="middle" class="label">Return or Disposal</text>

  <rect x="760" y="1040" width="280" height="90" class="box" />
  <text x="900" y="1072" text-anchor="middle" class="small">5</text>
  <text x="900" y="1100" text-anchor="middle" class="label">Prepare Property</text>
  <text x="900" y="1126" text-anchor="middle" class="label">Reports</text>

  <rect x="390" y="110" width="260" height="80" class="store" />
  <text x="432" y="144" text-anchor="middle" class="small">D1</text>
  <text x="535" y="172" text-anchor="middle" class="label">Personnel List</text>

  <rect x="390" y="340" width="280" height="80" class="store" />
  <text x="432" y="374" text-anchor="middle" class="small">D2</text>
  <text x="540" y="398" text-anchor="middle" class="label">Property Inventory</text>
  <text x="540" y="423" text-anchor="middle" class="label">Logbook</text>

  <rect x="1160" y="590" width="280" height="80" class="store" />
  <text x="1202" y="624" text-anchor="middle" class="small">D3</text>
  <text x="1310" y="653" text-anchor="middle" class="label">Accountability Forms</text>

  <rect x="1160" y="835" width="290" height="80" class="store" />
  <text x="1202" y="869" text-anchor="middle" class="small">D4</text>
  <text x="1315" y="893" text-anchor="middle" class="label">Return and Disposal</text>
  <text x="1315" y="918" text-anchor="middle" class="label">Records</text>

  <rect x="1160" y="1065" width="270" height="80" class="store" />
  <text x="1202" y="1099" text-anchor="middle" class="small">D5</text>
  <text x="1305" y="1128" text-anchor="middle" class="label">Property Report Files</text>

  <line x1="650" y1="135" x2="760" y2="135" class="line" marker-end="url(#arrow)" />
  <text x="705" y="124" text-anchor="middle" class="small">Existing Personnel Details</text>
  <line x1="760" y1="170" x2="650" y2="170" class="line" marker-end="url(#arrow)" />
  <text x="705" y="197" text-anchor="middle" class="small">Personnel Record Data</text>

  <line x1="670" y1="360" x2="760" y2="360" class="line" marker-end="url(#arrow)" />
  <text x="715" y="350" text-anchor="middle" class="small">Property Record Details</text>
  <line x1="760" y1="395" x2="670" y2="395" class="line" marker-end="url(#arrow)" />
  <text x="715" y="423" text-anchor="middle" class="small">Property Inventory Data</text>

  <line x1="1040" y1="620" x2="1160" y2="620" class="line" marker-end="url(#arrow)" />
  <text x="1100" y="610" text-anchor="middle" class="small">Accountability Record Data</text>
  <line x1="1160" y1="655" x2="1040" y2="655" class="line" marker-end="url(#arrow)" />
  <text x="1100" y="683" text-anchor="middle" class="small">Accountability Details</text>

  <line x1="1040" y1="845" x2="1160" y2="845" class="line" marker-end="url(#arrow)" />
  <text x="1100" y="835" text-anchor="middle" class="small">Return / Disposal Data</text>
  <line x1="1160" y1="890" x2="1040" y2="890" class="line" marker-end="url(#arrow)" />
  <text x="1100" y="918" text-anchor="middle" class="small">Record Details</text>

  <line x1="1040" y1="1085" x2="1160" y2="1085" class="line" marker-end="url(#arrow)" />
  <text x="1100" y="1075" text-anchor="middle" class="small">Generated Report Data</text>
  <line x1="1160" y1="1120" x2="1040" y2="1120" class="line" marker-end="url(#arrow)" />
  <text x="1100" y="1148" text-anchor="middle" class="small">Stored Report Details</text>

  <line x1="305" y1="190" x2="760" y2="190" class="line" marker-end="url(#arrow)" />
  <text x="535" y="180" text-anchor="middle" class="small">Personnel Information / Property Request</text>
  <line x1="305" y1="220" x2="720" y2="220" class="line" />
  <line x1="720" y1="220" x2="720" y2="585" class="line" />
  <line x1="720" y1="585" x2="760" y2="585" class="line" marker-end="url(#arrow)" />
  <text x="500" y="240" text-anchor="middle" class="small">Acknowledgment / Signature</text>

  <line x1="760" y1="630" x2="330" y2="630" class="line" />
  <line x1="330" y1="630" x2="330" y2="240" class="line" marker-end="url(#arrow)" />
  <text x="545" y="650" text-anchor="middle" class="small">Issued Property Details</text>

  <line x1="305" y1="235" x2="700" y2="235" class="line" />
  <line x1="700" y1="235" x2="700" y2="825" class="line" />
  <line x1="700" y1="825" x2="760" y2="825" class="line" marker-end="url(#arrow)" />
  <text x="500" y="815" text-anchor="middle" class="small">Returned Item / Disposal Request</text>

  <line x1="760" y1="860" x2="350" y2="860" class="line" />
  <line x1="350" y1="860" x2="350" y2="250" class="line" marker-end="url(#arrow)" />
  <text x="555" y="885" text-anchor="middle" class="small">Return / Disposal Status</text>

  <line x1="305" y1="585" x2="760" y2="365" class="line" marker-end="url(#arrow)" />
  <text x="500" y="455" text-anchor="middle" class="small">Property Details</text>
  <line x1="760" y1="395" x2="305" y2="610" class="line" marker-end="url(#arrow)" />
  <text x="500" y="535" text-anchor="middle" class="small">Updated Inventory Details</text>

  <line x1="305" y1="610" x2="760" y2="610" class="line" marker-end="url(#arrow)" />
  <text x="535" y="598" text-anchor="middle" class="small">Accountability Form Details</text>
  <line x1="305" y1="635" x2="710" y2="635" class="line" />
  <line x1="710" y1="635" x2="710" y2="850" class="line" />
  <line x1="710" y1="850" x2="760" y2="850" class="line" marker-end="url(#arrow)" />
  <text x="515" y="873" text-anchor="middle" class="small">Inspection and Disposal Details</text>

  <line x1="305" y1="650" x2="675" y2="650" class="line" />
  <line x1="675" y1="650" x2="675" y2="1065" class="line" />
  <line x1="675" y1="1065" x2="760" y2="1065" class="line" marker-end="url(#arrow)" />
  <text x="500" y="1055" text-anchor="middle" class="small">Report Preparation Details</text>
  <line x1="760" y1="1110" x2="330" y2="1110" class="line" />
  <line x1="330" y1="1110" x2="330" y2="645" class="line" marker-end="url(#arrow)" />
  <text x="545" y="1133" text-anchor="middle" class="small">Report Copies</text>

  <line x1="1495" y1="545" x2="1040" y2="150" class="line" marker-end="url(#arrow)" />
  <text x="1290" y="325" text-anchor="middle" class="small">Personnel Approval / Authorization</text>
  <line x1="1495" y1="570" x2="1040" y2="830" class="line" marker-end="url(#arrow)" />
  <text x="1280" y="720" text-anchor="middle" class="small">Disposal Approval</text>
  <line x1="1495" y1="595" x2="1040" y2="1070" class="line" marker-end="url(#arrow)" />
  <text x="1290" y="1028" text-anchor="middle" class="small">Report Request</text>
  <line x1="1040" y1="1110" x2="1495" y2="610" class="line" marker-end="url(#arrow)" />
  <text x="1305" y="1148" text-anchor="middle" class="small">Prepared Property Reports</text>

  <line x1="900" y1="195" x2="900" y2="555" class="line" marker-end="url(#arrow)" />
  <text x="928" y="380" class="small">Verified Personnel Information</text>
  <line x1="835" y1="420" x2="835" y2="555" class="line" marker-end="url(#arrow)" />
  <text x="520" y="465" text-anchor="middle" class="small">Available Property Information</text>
  <line x1="965" y1="420" x2="965" y2="790" class="line" marker-end="url(#arrow)" />
  <text x="992" y="610" class="small">Property Status Information</text>
  <line x1="1040" y1="395" x2="1090" y2="395" class="line" />
  <line x1="1090" y1="395" x2="1090" y2="1065" class="line" marker-end="url(#arrow)" />
  <text x="1118" y="735" class="small">Inventory Summary Data</text>
  <line x1="1040" y1="600" x2="1125" y2="600" class="line" />
  <line x1="1125" y1="600" x2="1125" y2="1085" class="line" marker-end="url(#arrow)" />
  <text x="1152" y="850" class="small">Accountability Summary Data</text>
  <line x1="1040" y1="860" x2="1135" y2="860" class="line" />
  <line x1="1135" y1="860" x2="1135" y2="1105" class="line" marker-end="url(#arrow)" />
  <text x="1162" y="995" class="small">Disposal Summary Data</text>
</svg>
